<?xml version="1.0" encoding="UTF-8"?>
<svg width="800px" height="800px" viewBox="0 0 24 24" xmlns="http://www.w3.org/2000/svg">
  <defs>
    <!-- Steel-like gradient -->
    <linearGradient id="steelGrad" x1="0" y1="0" x2="0" y2="1">
      <stop offset="0%" stop-color="#f2f2f2"/>
      <stop offset="18%" stop-color="#d9d9d9"/>
      <stop offset="36%" stop-color="#ececec"/>
      <stop offset="50%" stop-color="#bfbfbf"/>
      <stop offset="64%" stop-color="#efefef"/>
      <stop offset="82%" stop-color="#c9c9c9"/>
      <stop offset="100%" stop-color="#b0b0b0"/>
    </linearGradient>

    <!-- Subtle inner shadow -->
    <filter id="softShadow" x="-20%" y="-20%" width="140%" height="140%">
      <feDropShadow dx="0.4" dy="0.8" stdDeviation="0.6" flood-color="#000000" flood-opacity="0.25"/>
    </filter>

    <!-- Specular highlight for metallic sheen -->
    <linearGradient id="sheen" x1="0" y1="0" x2="1" y2="1">
      <stop offset="0%" stop-color="white" stop-opacity="0.55"/>
      <stop offset="35%" stop-color="white" stop-opacity="0.0"/>
      <stop offset="65%" stop-color="white" stop-opacity="0.0"/>
      <stop offset="100%" stop-color="white" stop-opacity="0.35"/>
    </linearGradient>
  </defs>

  <g filter="url(#softShadow)">
    <path d="M15.7071 4.29289C16.0976 4.68342 16.0976 5.31658 15.7071 5.70711L9.41421 12L15.7071 18.2929C16.0976 18.6834 16.0976 19.3166 15.7071 19.7071C15.3166 20.0976 14.6834 20.0976 14.2929 19.7071L7.29289 12.7071C7.10536 12.5196 7 12.2652 7 12C7 11.7348 7.10536 11.4804 7.29289 11.2929L14.2929 4.29289C14.6834 3.90237 15.3166 3.90237 15.7071 4.29289Z"
          fill="url(#steelGrad)" shape-rendering="geometricPrecision"/>
    <!-- sheen overlay -->
    <path d="M15.7071 4.29289C16.0976 4.68342 16.0976 5.31658 15.7071 5.70711L9.41421 12L15.7071 18.2929C16.0976 18.6834 16.0976 19.3166 15.7071 19.7071C15.3166 20.0976 14.6834 20.0976 14.2929 19.7071L7.29289 12.7071C7.10536 12.5196 7 12.2652 7 12C7 11.7348 7.10536 11.4804 7.29289 11.2929L14.2929 4.29289C14.6834 3.90237 15.3166 3.90237 15.7071 4.29289Z"
          fill="url(#sheen)" opacity="0.8"/>
  </g>
</svg>
